<svg id="Layer_1" data-name="Layer 1" xmlns="http://www.w3.org/2000/svg" viewBox="0 0 190.4 38.32"><defs><style>.cls-1,.cls-6{fill:#05af87;}.cls-2{fill:#0a1116;}.cls-3{fill:#f7c414;}.cls-4{fill:#fff;}.cls-5{fill:#ee6946;}.cls-6{opacity:0.5;}.cls-7{fill:#091015;}</style></defs><title>Artboard 1</title><path class="cls-1" d="M129.94,2.17A1.42,1.42,0,1,0,131.36.75a1.42,1.42,0,0,0-1.42,1.42"/><path class="cls-2" d="M62.45,2.07l-2.15.74V5.63H57.91V7.51h2.32v6.05c0,2.88,1,4.05,3.39,4.05a6.76,6.76,0,0,0,1.78-.23l.09,0,0-2-.17.06a3.57,3.57,0,0,1-1.13.25c-1.13,0-1.55-.64-1.55-2.35V7.51h2.76V5.63H62.62V2Z"/><path class="cls-2" d="M69.9,7.53V5.63H67.72V17.41h2.39V11.49c0-2.48,1-3.85,2.93-3.85a3,3,0,0,1,.86.13l.16,0,.08-2.33-1-.08a3.51,3.51,0,0,0-3.2,2.12"/><path class="cls-2" d="M87,5.35A4.57,4.57,0,0,0,83,7.54V5.63H80.83V22.21h2.39V15.78a4.34,4.34,0,0,0,3.64,1.81c3,0,5-2.47,5-6.3,0-3.55-2-5.94-4.88-5.94m-.67,10.31c-1.89,0-3.07-1.62-3.07-4.21s1.24-4.12,3.16-4.12,3,1.53,3,4.1-1.17,4.24-3,4.24"/><path class="cls-1" d="M98.82,5.35a8.83,8.83,0,0,0-3.91.84l-.07,0,0,2,.19-.1a6.54,6.54,0,0,1,3.15-.95,2.48,2.48,0,0,1,2.72,2.72V10H99.55c-3.93,0-6.1,1.42-6.1,4a3.51,3.51,0,0,0,3.8,3.53,4.51,4.51,0,0,0,3.82-1.86v1.7h2.16V10.28c0-3.27-1.49-4.93-4.42-4.93m2.1,7.09a3,3,0,0,1-3.11,3.34,1.83,1.83,0,0,1-2-1.85c0-1.43,1.37-2.22,3.85-2.22h1.23Z"/><path class="cls-1" d="M113.39,0V7.22a4.31,4.31,0,0,0-3.69-1.88c-2.92,0-4.88,2.41-4.88,6s2,6.26,4.83,6.26a4.39,4.39,0,0,0,3.92-2.2v2h2.21V0Zm-3.11,15.61c-1.82,0-3-1.59-3-4.14s1.14-4.21,2.91-4.21c2,0,3.16,1.57,3.16,4.21s-1.22,4.14-3.11,4.14"/><polygon class="cls-1" points="126.45 5.63 123.06 12.43 119.93 5.63 117.24 5.63 123.02 17.41 128.95 5.63 126.45 5.63"/><polygon class="cls-1" points="132.43 5.63 130.16 5.63 130.16 17.41 132.56 17.41 132.56 5.63 132.43 5.63"/><path class="cls-1" d="M135.36,8.65c0,1.66,1.14,2.53,3.24,3.56,1.33.65,2,1,2,2s-.85,1.55-2.17,1.55a6.94,6.94,0,0,1-3-.77l-.17-.09-.08,2.08.08,0a8.38,8.38,0,0,0,3.08.58c2.92,0,4.81-1.39,4.81-3.55,0-1.8-1.2-2.71-3.27-3.67-1.52-.71-2.15-1.13-2.15-1.88s.71-1.18,1.8-1.18a6.62,6.62,0,0,1,2.86.65l.17.08.11-2-.1,0a10.32,10.32,0,0,0-2.91-.44c-2.59,0-4.33,1.27-4.33,3.16"/><path class="cls-1" d="M150.62,5.35c-3.59,0-5.82,2.36-5.82,6.17s2.23,6.17,5.82,6.17,5.85-2.36,5.85-6.17-2.24-6.17-5.85-6.17m0,10.38c-2,0-3.32-1.7-3.32-4.24s1.33-4.26,3.32-4.26S154,8.91,154,11.49s-1.3,4.24-3.32,4.24"/><path class="cls-1" d="M160.87,7.53V5.63h-2.18V17.41h2.39V11.49c0-2.48,1-3.85,2.93-3.85a3,3,0,0,1,.86.13l.16,0,.08-2.33-1-.08a3.52,3.52,0,0,0-3.2,2.12"/><polygon class="cls-2" points="78.39 5.63 76.13 5.63 76.13 17.41 78.52 17.41 78.52 5.63 78.39 5.63"/><path class="cls-2" d="M75.9,2.17A1.42,1.42,0,1,0,77.32.75,1.42,1.42,0,0,0,75.9,2.17"/><path class="cls-3" d="M44.81,3.43A7.31,7.31,0,0,1,47.13,3,17.35,17.35,0,0,0,40,1.56,18.23,18.23,0,0,0,32.8,3,7.38,7.38,0,0,1,40,9.79a7.36,7.36,0,0,1,4.8-6.36"/><path class="cls-4" d="M47.35,7.87a2.39,2.39,0,1,0,2.39,2.39,2.39,2.39,0,0,0-2.39-2.39m0,3.62a1.23,1.23,0,1,1,1.22-1.23,1.23,1.23,0,0,1-1.22,1.23"/><path class="cls-4" d="M45.32,4.83a5.89,5.89,0,0,0-3.48,7.57h0a5.89,5.89,0,1,0,3.48-7.57m2,9.08A3.64,3.64,0,1,1,51,10.26a3.65,3.65,0,0,1-3.64,3.65"/><path class="cls-4" d="M32.56,7.87a2.39,2.39,0,1,0,2.38,2.39,2.39,2.39,0,0,0-2.38-2.39m0,3.62a1.23,1.23,0,1,1,1.23-1.23,1.23,1.23,0,0,1-1.23,1.23"/><path class="cls-4" d="M32.66,4.43a5.89,5.89,0,1,0,5.89,5.89,5.9,5.9,0,0,0-5.89-5.89m-.09,9.47a3.64,3.64,0,1,1,3.64-3.65,3.65,3.65,0,0,1-3.64,3.65"/><path class="cls-5" d="M32.56,9a1.23,1.23,0,1,0,1.23,1.23A1.23,1.23,0,0,0,32.56,9"/><path class="cls-1" d="M47.35,9a1.23,1.23,0,1,0,1.22,1.23A1.22,1.22,0,0,0,47.35,9"/><path class="cls-2" d="M53.29,6a9.5,9.5,0,0,1,1.45-3H49.82A17.94,17.94,0,0,0,40,.27,18.35,18.35,0,0,0,29.89,3H25.27A9.55,9.55,0,0,1,26.72,6a7.37,7.37,0,0,0,11.7,9L40,17.29l1.59-2.37A7.38,7.38,0,0,0,53.29,6M44.9,15.7a5.85,5.85,0,0,1-3.06-3.31h0A5.89,5.89,0,1,1,44.9,15.7m-12.24.51a5.89,5.89,0,1,1,5.89-5.89,5.9,5.9,0,0,1-5.89,5.89M44.81,3.43A7.36,7.36,0,0,0,40,9.79,7.38,7.38,0,0,0,32.8,3,18.23,18.23,0,0,1,40,1.56,17.35,17.35,0,0,1,47.13,3a7.31,7.31,0,0,0-2.32.45"/><path class="cls-2" d="M32.56,6.62a3.64,3.64,0,1,0,3.64,3.64,3.65,3.65,0,0,0-3.64-3.64m0,6a2.39,2.39,0,1,1,2.38-2.39,2.4,2.4,0,0,1-2.38,2.39"/><path class="cls-2" d="M47.35,6.62A3.64,3.64,0,1,0,51,10.26a3.65,3.65,0,0,0-3.64-3.64m0,6a2.39,2.39,0,1,1,2.39-2.39,2.39,2.39,0,0,1-2.39,2.39"/><path class="cls-6" d="M170.67,4.22a2.05,2.05,0,0,1,.58,1.46,2,2,0,0,1-.62,1.49,2.12,2.12,0,0,1-1.47.61,2,2,0,0,1-1.49-.64,2.08,2.08,0,0,1-.6-1.46,2.11,2.11,0,0,1,.64-1.5,2,2,0,0,1,1.45-.59A2.07,2.07,0,0,1,170.67,4.22Zm-2.7.23a1.73,1.73,0,0,0-.52,1.23,1.72,1.72,0,0,0,1.7,1.71,1.74,1.74,0,0,0,1.21-.49,1.67,1.67,0,0,0,.5-1.22A1.7,1.7,0,0,0,169.17,4,1.66,1.66,0,0,0,168,4.45Zm1.23,0c.66,0,1,.24,1,.67a.63.63,0,0,1-.49.62l.51,1h-.69l-.43-.91h-.18v.91h-.63V4.49Zm-.29,1h.23c.28,0,.41-.1.41-.3s-.14-.31-.45-.31h-.19Z"/><path class="cls-7" d="M0,27.51H.87V32.7l2.34-2H4.33L1.72,32.89l3,2.84H3.56L.87,33.18v2.56H0Z"/><path class="cls-7" d="M5.76,30.66h.82v.88a1.64,1.64,0,0,1,.66-.77,2,2,0,0,1,1-.27,1.76,1.76,0,0,1,1.4.56,2.38,2.38,0,0,1,.49,1.61v3.07H9.32V32.82A1.9,1.9,0,0,0,9,31.64a1.1,1.1,0,0,0-.92-.39A1.35,1.35,0,0,0,7,31.7a1.81,1.81,0,0,0-.39,1.23v2.8H5.76Z"/><path class="cls-7" d="M14.31,35.9A2.71,2.71,0,0,1,13,35.56a2.55,2.55,0,0,1-1-1,2.84,2.84,0,0,1,0-2.74,2.68,2.68,0,0,1,1-1,2.58,2.58,0,0,1,1.38-.38,2.71,2.71,0,0,1,1.34.34,2.57,2.57,0,0,1,1,1,2.83,2.83,0,0,1,0,2.74,2.67,2.67,0,0,1-1,1A2.59,2.59,0,0,1,14.31,35.9Zm0-.77a1.68,1.68,0,0,0,1.29-.54,2.18,2.18,0,0,0,0-2.78,1.81,1.81,0,0,0-2.57,0,2.18,2.18,0,0,0,0,2.78A1.68,1.68,0,0,0,14.31,35.13Z"/><path class="cls-7" d="M17.81,30.66h.89L20,34.82l1.29-4.17h.78l1.36,4.17,1.33-4.17h.86l-1.79,5.08H23l-1.35-4.11-1.28,4.11h-.81Z"/><path class="cls-7" d="M31.8,35.9A2,2,0,0,1,30,34.81l0,.92h-.85V27.51H30v4.07a2,2,0,0,1,.8-.81,2.33,2.33,0,0,1,1.15-.28,2.36,2.36,0,0,1,1.24.33,2.39,2.39,0,0,1,.88,1,3,3,0,0,1,.33,1.41A2.82,2.82,0,0,1,34,34.52a2.6,2.6,0,0,1-.91,1A2.39,2.39,0,0,1,31.8,35.9Zm-.12-.77A1.68,1.68,0,0,0,33,34.59a2.18,2.18,0,0,0,0-2.78,1.81,1.81,0,0,0-2.57,0,2.18,2.18,0,0,0,0,2.78A1.68,1.68,0,0,0,31.68,35.13Z"/><path class="cls-7" d="M38.31,35.9a2.89,2.89,0,0,1-2.07-.72,2.57,2.57,0,0,1-.76-2,3,3,0,0,1,.31-1.38,2.4,2.4,0,0,1,.89-1A2.47,2.47,0,0,1,38,30.5a2.17,2.17,0,0,1,1.67.69A2.56,2.56,0,0,1,40.33,33c0,.09,0,.17,0,.24s0,.15,0,.23h-4A1.77,1.77,0,0,0,37,34.7a2.14,2.14,0,0,0,1.4.43,4,4,0,0,0,1.76-.42l.1.73a3,3,0,0,1-.85.34A4.47,4.47,0,0,1,38.31,35.9Zm1.17-3.11a1.73,1.73,0,0,0-.43-1.15A1.44,1.44,0,0,0,38,31.24a1.51,1.51,0,0,0-1.09.41,1.85,1.85,0,0,0-.52,1.14Z"/><path class="cls-7" d="M43.94,35.9a1.62,1.62,0,0,1-1.28-.46A2.14,2.14,0,0,1,42.26,34V31.4H41.09v-.74h1.17V29.2h.87v1.46h1.79v.74H43.13v2.52a1.55,1.55,0,0,0,.22.94.89.89,0,0,0,.75.29,2.22,2.22,0,0,0,1-.26l.1.72A2.4,2.4,0,0,1,43.94,35.9Z"/><path class="cls-7" d="M48.42,35.9a1.62,1.62,0,0,1-1.28-.46A2.14,2.14,0,0,1,46.73,34V31.4H45.57v-.74h1.17V29.2h.87v1.46h1.79v.74H47.6v2.52a1.55,1.55,0,0,0,.22.94.89.89,0,0,0,.75.29,2.22,2.22,0,0,0,1-.26l.1.72A2.4,2.4,0,0,1,48.42,35.9Z"/><path class="cls-7" d="M53.33,35.9a2.89,2.89,0,0,1-2.07-.72,2.57,2.57,0,0,1-.76-2,3,3,0,0,1,.31-1.38,2.4,2.4,0,0,1,.89-1A2.47,2.47,0,0,1,53,30.5a2.17,2.17,0,0,1,1.67.69A2.56,2.56,0,0,1,55.34,33c0,.09,0,.17,0,.24s0,.15,0,.23h-4A1.77,1.77,0,0,0,52,34.7a2.14,2.14,0,0,0,1.4.43,4,4,0,0,0,1.76-.42l.1.73a3,3,0,0,1-.85.34A4.47,4.47,0,0,1,53.33,35.9Zm1.17-3.11a1.73,1.73,0,0,0-.43-1.15A1.44,1.44,0,0,0,53,31.24a1.51,1.51,0,0,0-1.09.41,1.85,1.85,0,0,0-.52,1.14Z"/><path class="cls-7" d="M56.93,30.66h.82v1.06a1.83,1.83,0,0,1,.62-.83,1.55,1.55,0,0,1,.93-.29,1.73,1.73,0,0,1,.33,0,1.33,1.33,0,0,1,.27.08l-.09.81a1.6,1.6,0,0,0-.61-.12,1.23,1.23,0,0,0-1,.49,2.2,2.2,0,0,0-.37,1.36v2.5h-.87Z"/><path class="cls-7" d="M75.4,35.9a2,2,0,0,1-1.85-1.09l0,.92h-.85V27.51h.87v4.07a2,2,0,0,1,.8-.81,2.33,2.33,0,0,1,1.15-.28,2.36,2.36,0,0,1,1.24.33,2.39,2.39,0,0,1,.88,1A3,3,0,0,1,78,33.2a2.82,2.82,0,0,1-.32,1.33,2.6,2.6,0,0,1-.91,1A2.39,2.39,0,0,1,75.4,35.9Zm-.12-.77a1.68,1.68,0,0,0,1.29-.54,2.18,2.18,0,0,0,0-2.78,1.81,1.81,0,0,0-2.57,0,2.18,2.18,0,0,0,0,2.78A1.68,1.68,0,0,0,75.28,35.13Z"/><path class="cls-7" d="M81.75,35.9a2.71,2.71,0,0,1-1.34-.34,2.55,2.55,0,0,1-1-1,2.84,2.84,0,0,1,0-2.74,2.68,2.68,0,0,1,1-1,2.58,2.58,0,0,1,1.38-.38,2.71,2.71,0,0,1,1.34.34,2.57,2.57,0,0,1,1,1,2.83,2.83,0,0,1,0,2.74,2.67,2.67,0,0,1-1,1A2.59,2.59,0,0,1,81.75,35.9Zm0-.77A1.68,1.68,0,0,0,83,34.59a2.18,2.18,0,0,0,0-2.78,1.81,1.81,0,0,0-2.57,0,2.18,2.18,0,0,0,0,2.78A1.68,1.68,0,0,0,81.75,35.13Z"/><path class="cls-7" d="M88.23,35.9a2.71,2.71,0,0,1-1.34-.34,2.55,2.55,0,0,1-1-1,2.84,2.84,0,0,1,0-2.74,2.68,2.68,0,0,1,1-1,2.58,2.58,0,0,1,1.38-.38,2.71,2.71,0,0,1,1.34.34,2.57,2.57,0,0,1,1,1,2.83,2.83,0,0,1,0,2.74,2.67,2.67,0,0,1-1,1A2.59,2.59,0,0,1,88.23,35.9Zm0-.77a1.68,1.68,0,0,0,1.29-.54,2.18,2.18,0,0,0,0-2.78,1.81,1.81,0,0,0-2.57,0,2.18,2.18,0,0,0,0,2.78A1.68,1.68,0,0,0,88.23,35.13Z"/><path class="cls-7" d="M92.39,27.51h.87V32.7l2.34-2h1.12l-2.62,2.24,3,2.84H95.95l-2.69-2.56v2.56h-.87Z"/><path class="cls-7" d="M103.17,35.9a2,2,0,0,1-1.85-1.09l0,.92h-.85V27.51h.87v4.07a2,2,0,0,1,.8-.81,2.33,2.33,0,0,1,1.15-.28,2.36,2.36,0,0,1,1.24.33,2.38,2.38,0,0,1,.88,1,3,3,0,0,1,.33,1.41,2.81,2.81,0,0,1-.32,1.33,2.59,2.59,0,0,1-.91,1A2.39,2.39,0,0,1,103.17,35.9Zm-.12-.77a1.68,1.68,0,0,0,1.29-.54,2.18,2.18,0,0,0,0-2.78,1.81,1.81,0,0,0-2.58,0,2.19,2.19,0,0,0,0,2.78A1.68,1.68,0,0,0,103,35.13Z"/><path class="cls-7" d="M109.68,35.9a2.89,2.89,0,0,1-2.07-.72,2.57,2.57,0,0,1-.76-2,3,3,0,0,1,.31-1.38,2.4,2.4,0,0,1,.89-1,2.47,2.47,0,0,1,1.33-.36,2.17,2.17,0,0,1,1.67.69,2.56,2.56,0,0,1,.64,1.81c0,.09,0,.17,0,.24s0,.15,0,.23h-4a1.77,1.77,0,0,0,.61,1.23,2.15,2.15,0,0,0,1.4.43,4,4,0,0,0,1.76-.42l.1.73a3,3,0,0,1-.85.34A4.46,4.46,0,0,1,109.68,35.9Zm1.17-3.11a1.72,1.72,0,0,0-.43-1.15,1.44,1.44,0,0,0-1.09-.41,1.51,1.51,0,0,0-1.09.41,1.85,1.85,0,0,0-.52,1.14Z"/><path class="cls-7" d="M115.31,35.9a1.61,1.61,0,0,1-1.28-.46,2.14,2.14,0,0,1-.41-1.45V31.4h-1.17v-.74h1.17V29.2h.87v1.46h1.79v.74h-1.79v2.52a1.55,1.55,0,0,0,.22.94.89.89,0,0,0,.75.29,2.22,2.22,0,0,0,1-.26l.1.72A2.4,2.4,0,0,1,115.31,35.9Z"/><path class="cls-7" d="M119.78,35.9a1.61,1.61,0,0,1-1.28-.46A2.14,2.14,0,0,1,118.1,34V31.4h-1.17v-.74h1.17V29.2H119v1.46h1.79v.74H119v2.52a1.55,1.55,0,0,0,.22.94.89.89,0,0,0,.75.29,2.22,2.22,0,0,0,1-.26l.1.72A2.4,2.4,0,0,1,119.78,35.9Z"/><path class="cls-7" d="M124.7,35.9a2.89,2.89,0,0,1-2.07-.72,2.57,2.57,0,0,1-.76-2,3,3,0,0,1,.31-1.38,2.4,2.4,0,0,1,.89-1,2.47,2.47,0,0,1,1.33-.36,2.17,2.17,0,0,1,1.67.69,2.56,2.56,0,0,1,.64,1.81c0,.09,0,.17,0,.24s0,.15,0,.23h-4a1.77,1.77,0,0,0,.61,1.23,2.15,2.15,0,0,0,1.4.43,4,4,0,0,0,1.76-.42l.1.73a3,3,0,0,1-.85.34A4.46,4.46,0,0,1,124.7,35.9Zm1.17-3.11a1.72,1.72,0,0,0-.43-1.15,1.44,1.44,0,0,0-1.09-.41,1.51,1.51,0,0,0-1.09.41,1.85,1.85,0,0,0-.52,1.14Z"/><path class="cls-7" d="M128.29,30.66h.82v1.06a1.83,1.83,0,0,1,.62-.83,1.55,1.55,0,0,1,.93-.29,1.72,1.72,0,0,1,.33,0,1.31,1.31,0,0,1,.27.08l-.09.81a1.6,1.6,0,0,0-.61-.12,1.23,1.23,0,0,0-1,.49,2.2,2.2,0,0,0-.37,1.36v2.5h-.87Z"/><path class="cls-7" d="M146.18,38.32a4.73,4.73,0,0,1-1.1-.13,2.24,2.24,0,0,1-.81-.33l.11-.77a3.11,3.11,0,0,0,.82.34,3.75,3.75,0,0,0,1,.13,1.89,1.89,0,0,0,1.44-.5,2.15,2.15,0,0,0,.47-1.52v-.72a2,2,0,0,1-.8.81,2.33,2.33,0,0,1-1.15.28,2.36,2.36,0,0,1-1.24-.33,2.38,2.38,0,0,1-.88-1,3,3,0,0,1-.33-1.41,2.81,2.81,0,0,1,.32-1.33,2.59,2.59,0,0,1,.91-1,2.39,2.39,0,0,1,1.32-.38,2.07,2.07,0,0,1,1.07.28,2.14,2.14,0,0,1,.78.8l0-.92H149v4.79a3,3,0,0,1-.7,2.15A2.76,2.76,0,0,1,146.18,38.32Zm.18-3.19a1.68,1.68,0,0,0,1.29-.54,2.18,2.18,0,0,0,0-2.78,1.81,1.81,0,0,0-2.57,0,2.18,2.18,0,0,0,0,2.78A1.68,1.68,0,0,0,146.36,35.13Z"/><path class="cls-7" d="M153.12,35.9a2.71,2.71,0,0,1-1.34-.34,2.55,2.55,0,0,1-1-1,2.83,2.83,0,0,1,0-2.74,2.67,2.67,0,0,1,1-1,2.58,2.58,0,0,1,1.38-.38,2.71,2.71,0,0,1,1.34.34,2.57,2.57,0,0,1,1,1,2.84,2.84,0,0,1,0,2.74,2.68,2.68,0,0,1-1,1A2.59,2.59,0,0,1,153.12,35.9Zm0-.77a1.68,1.68,0,0,0,1.29-.54,2.18,2.18,0,0,0,0-2.78,1.81,1.81,0,0,0-2.57,0,2.18,2.18,0,0,0,0,2.78A1.68,1.68,0,0,0,153.12,35.13Z"/><path class="cls-7" d="M162.29,35.9a2,2,0,0,1-1.85-1.09l0,.92h-.85V27.51h.87v4.07a2,2,0,0,1,.8-.81,2.33,2.33,0,0,1,1.15-.28,2.36,2.36,0,0,1,1.24.33,2.38,2.38,0,0,1,.88,1,3,3,0,0,1,.33,1.41,2.81,2.81,0,0,1-.32,1.33,2.59,2.59,0,0,1-.91,1A2.39,2.39,0,0,1,162.29,35.9Zm-.12-.77a1.68,1.68,0,0,0,1.29-.54,2.18,2.18,0,0,0,0-2.78,1.81,1.81,0,0,0-2.58,0,2.19,2.19,0,0,0,0,2.78A1.68,1.68,0,0,0,162.17,35.13Z"/><path class="cls-7" d="M168.8,35.9a2.89,2.89,0,0,1-2.07-.72,2.57,2.57,0,0,1-.76-2,3,3,0,0,1,.31-1.38,2.4,2.4,0,0,1,.89-1,2.47,2.47,0,0,1,1.33-.36,2.17,2.17,0,0,1,1.67.69,2.56,2.56,0,0,1,.64,1.81c0,.09,0,.17,0,.24s0,.15,0,.23h-4a1.77,1.77,0,0,0,.61,1.23,2.15,2.15,0,0,0,1.4.43,4,4,0,0,0,1.76-.42l.1.73a3,3,0,0,1-.85.34A4.46,4.46,0,0,1,168.8,35.9ZM170,32.79a1.72,1.72,0,0,0-.43-1.15,1.44,1.44,0,0,0-1.09-.41,1.51,1.51,0,0,0-1.09.41,1.85,1.85,0,0,0-.52,1.14Z"/><path class="cls-7" d="M174.43,35.9a1.62,1.62,0,0,1-1.28-.46,2.15,2.15,0,0,1-.41-1.45V31.4h-1.17v-.74h1.17V29.2h.87v1.46h1.79v.74h-1.79v2.52a1.54,1.54,0,0,0,.22.94.89.89,0,0,0,.75.29,2.22,2.22,0,0,0,1-.26l.1.72A2.4,2.4,0,0,1,174.43,35.9Z"/><path class="cls-7" d="M178.9,35.9a1.61,1.61,0,0,1-1.28-.46,2.14,2.14,0,0,1-.41-1.45V31.4h-1.17v-.74h1.17V29.2h.87v1.46h1.79v.74h-1.79v2.52a1.55,1.55,0,0,0,.22.94.89.89,0,0,0,.75.29,2.22,2.22,0,0,0,1-.26l.1.72A2.4,2.4,0,0,1,178.9,35.9Z"/><path class="cls-7" d="M183.82,35.9a2.89,2.89,0,0,1-2.07-.72,2.57,2.57,0,0,1-.76-2,3,3,0,0,1,.31-1.38,2.4,2.4,0,0,1,.89-1,2.47,2.47,0,0,1,1.33-.36,2.17,2.17,0,0,1,1.67.69,2.56,2.56,0,0,1,.64,1.81c0,.09,0,.17,0,.24s0,.15,0,.23h-4a1.77,1.77,0,0,0,.61,1.23,2.15,2.15,0,0,0,1.4.43,4,4,0,0,0,1.76-.42l.1.73a3,3,0,0,1-.85.34A4.46,4.46,0,0,1,183.82,35.9ZM185,32.79a1.72,1.72,0,0,0-.43-1.15,1.44,1.44,0,0,0-1.09-.41,1.51,1.51,0,0,0-1.09.41,1.85,1.85,0,0,0-.52,1.14Z"/><path class="cls-7" d="M187.42,30.66h.82v1.06a1.84,1.84,0,0,1,.62-.83,1.55,1.55,0,0,1,.93-.29,1.74,1.74,0,0,1,.33,0,1.35,1.35,0,0,1,.27.08l-.09.81a1.61,1.61,0,0,0-.61-.12,1.23,1.23,0,0,0-1,.49,2.2,2.2,0,0,0-.37,1.36v2.5h-.87Z"/><path class="cls-1" d="M62.66,32.29A3.54,3.54,0,1,1,66.2,35.8a3.53,3.53,0,0,1-3.54-3.52m.71,0a2.82,2.82,0,1,0,2.82-2.81,2.82,2.82,0,0,0-2.82,2.81"/><path class="cls-1" d="M64.45,32.29a1.75,1.75,0,1,0,1.75-1.74,1.74,1.74,0,0,0-1.75,1.74"/><path class="cls-1" d="M133.88,32.29a3.54,3.54,0,1,1,3.54,3.52,3.53,3.53,0,0,1-3.54-3.52m.71,0a2.82,2.82,0,1,0,2.82-2.81,2.82,2.82,0,0,0-2.82,2.81"/><path class="cls-1" d="M135.67,32.29a1.75,1.75,0,1,0,1.75-1.74,1.74,1.74,0,0,0-1.75,1.74"/></svg>